<svg xmlns="http://www.w3.org/2000/svg" viewBox="0 0 512 512">
<rect width="512" height="512" rx="96" fill="#ff9933"/>
<g fill="none" stroke="#1a1a1a" stroke-width="5" stroke-linejoin="round" stroke-linecap="round">
<path transform="rotate(0 256 256)" d="M 48.00 48.00 L 216.00 48.00 M 296.00 48.00 L 464.00 48.00 M 72.00 72.00 L 216.00 72.00 M 296.00 72.00 L 440.00 72.00 M 216.00 24.00 L 216.00 72.00 M 296.00 24.00 L 296.00 72.00 M 216.00 24.00 L 296.00 24.00"/>
<path transform="rotate(90 256 256)" d="M 48.00 48.00 L 216.00 48.00 M 296.00 48.00 L 464.00 48.00 M 72.00 72.00 L 216.00 72.00 M 296.00 72.00 L 440.00 72.00 M 216.00 24.00 L 216.00 72.00 M 296.00 24.00 L 296.00 72.00 M 216.00 24.00 L 296.00 24.00"/>
<path transform="rotate(180 256 256)" d="M 48.00 48.00 L 216.00 48.00 M 296.00 48.00 L 464.00 48.00 M 72.00 72.00 L 216.00 72.00 M 296.00 72.00 L 440.00 72.00 M 216.00 24.00 L 216.00 72.00 M 296.00 24.00 L 296.00 72.00 M 216.00 24.00 L 296.00 24.00"/>
<path transform="rotate(270 256 256)" d="M 48.00 48.00 L 216.00 48.00 M 296.00 48.00 L 464.00 48.00 M 72.00 72.00 L 216.00 72.00 M 296.00 72.00 L 440.00 72.00 M 216.00 24.00 L 216.00 72.00 M 296.00 24.00 L 296.00 72.00 M 216.00 24.00 L 296.00 24.00"/>
<circle cx="256" cy="256" r="176"/>
<path stroke-width="3.5" d="M 256.00 84.00 Q 207.43 122.56 256.00 148.00 Q 304.57 122.56 256.00 84.00 Z"/>
<path stroke-width="3.5" d="M 134.38 134.38 Q 127.30 195.99 179.63 179.63 Q 195.99 127.30 134.38 134.38 Z"/>
<path stroke-width="3.5" d="M 84.00 256.00 Q 122.56 304.57 148.00 256.00 Q 122.56 207.43 84.00 256.00 Z"/>
<path stroke-width="3.5" d="M 134.38 377.62 Q 195.99 384.70 179.63 332.37 Q 127.30 316.01 134.38 377.62 Z"/>
<path stroke-width="3.5" d="M 256.00 428.00 Q 304.57 389.44 256.00 364.00 Q 207.43 389.44 256.00 428.00 Z"/>
<path stroke-width="3.5" d="M 377.62 377.62 Q 384.70 316.01 332.37 332.37 Q 316.01 384.70 377.62 377.62 Z"/>
<path stroke-width="3.5" d="M 428.00 256.00 Q 389.44 207.43 364.00 256.00 Q 389.44 304.57 428.00 256.00 Z"/>
<path stroke-width="3.5" d="M 377.62 134.38 Q 316.01 127.30 332.37 179.63 Q 384.70 195.99 377.62 134.38 Z"/>
<polygon points="256.00,106.00 126.10,331.00 385.90,331.00"/>
<polygon stroke-width="3.5" points="256.00,184.00 193.65,292.00 318.35,292.00"/>
<polygon stroke-width="3.5" points="318.35,220.00 193.65,220.00 256.00,328.00"/>
</g>
<circle cx="256" cy="256" r="11" fill="#1a1a1a"/>
</svg>
