<svg xmlns="http://www.w3.org/2000/svg" viewBox="0 0 512 512">
<rect width="512" height="512" rx="96" fill="#ff9933"/>
<g fill="none" stroke="#1a1a1a" stroke-width="5" stroke-linejoin="round" stroke-linecap="round">
<path transform="rotate(0 256 256)" d="M 56.00 56.00 L 216.00 56.00 M 296.00 56.00 L 456.00 56.00 M 216.00 56.00 L 216.00 28.00 M 296.00 56.00 L 296.00 28.00 M 216.00 28.00 L 296.00 28.00"/>
<path transform="rotate(90 256 256)" d="M 56.00 56.00 L 216.00 56.00 M 296.00 56.00 L 456.00 56.00 M 216.00 56.00 L 216.00 28.00 M 296.00 56.00 L 296.00 28.00 M 216.00 28.00 L 296.00 28.00"/>
<path transform="rotate(180 256 256)" d="M 56.00 56.00 L 216.00 56.00 M 296.00 56.00 L 456.00 56.00 M 216.00 56.00 L 216.00 28.00 M 296.00 56.00 L 296.00 28.00 M 216.00 28.00 L 296.00 28.00"/>
<path transform="rotate(270 256 256)" d="M 56.00 56.00 L 216.00 56.00 M 296.00 56.00 L 456.00 56.00 M 216.00 56.00 L 216.00 28.00 M 296.00 56.00 L 296.00 28.00 M 216.00 28.00 L 296.00 28.00"/>
<circle cx="256" cy="256" r="188"/>
<path stroke-width="3.5" d="M 370.56 303.45 C 403.82 317.23 436.72 307.82 444.00 256.00 C 436.72 204.18 403.82 194.77 370.56 208.55"/>
<path stroke-width="3.5" d="M 370.56 208.55 C 403.82 194.77 420.43 164.86 388.94 123.06 C 347.14 91.57 317.23 108.18 303.45 141.44"/>
<path stroke-width="3.5" d="M 303.45 141.44 C 317.23 108.18 307.82 75.28 256.00 68.00 C 204.18 75.28 194.77 108.18 208.55 141.44"/>
<path stroke-width="3.5" d="M 208.55 141.44 C 194.77 108.18 164.86 91.57 123.06 123.06 C 91.57 164.86 108.18 194.77 141.44 208.55"/>
<path stroke-width="3.5" d="M 141.44 208.55 C 108.18 194.77 75.28 204.18 68.00 256.00 C 75.28 307.82 108.18 317.23 141.44 303.45"/>
<path stroke-width="3.5" d="M 141.44 303.45 C 108.18 317.23 91.57 347.14 123.06 388.94 C 164.86 420.43 194.77 403.82 208.55 370.56"/>
<path stroke-width="3.5" d="M 208.55 370.56 C 194.77 403.82 204.18 436.72 256.00 444.00 C 307.82 436.72 317.23 403.82 303.45 370.56"/>
<path stroke-width="3.5" d="M 303.45 370.56 C 317.23 403.82 347.14 420.43 388.94 388.94 C 420.43 347.14 403.82 317.23 370.56 303.45"/>
<path stroke-width="2.5" d="M 381.65 308.04 C 405.67 317.99 422.89 297.61 428.00 256.00 C 422.89 214.39 405.67 194.01 381.65 203.96"/>
<path stroke-width="2.5" d="M 381.65 203.96 C 405.67 194.01 403.43 167.41 377.62 134.38 C 344.59 108.57 317.99 106.33 308.04 130.35"/>
<path stroke-width="2.5" d="M 308.04 130.35 C 317.99 106.33 297.61 89.11 256.00 84.00 C 214.39 89.11 194.01 106.33 203.96 130.35"/>
<path stroke-width="2.5" d="M 203.96 130.35 C 194.01 106.33 167.41 108.57 134.38 134.38 C 108.57 167.41 106.33 194.01 130.35 203.96"/>
<path stroke-width="2.5" d="M 130.35 203.96 C 106.33 194.01 89.11 214.39 84.00 256.00 C 89.11 297.61 106.33 317.99 130.35 308.04"/>
<path stroke-width="2.5" d="M 130.35 308.04 C 106.33 317.99 108.57 344.59 134.38 377.62 C 167.41 403.43 194.01 405.67 203.96 381.65"/>
<path stroke-width="2.5" d="M 203.96 381.65 C 194.01 405.67 214.39 422.89 256.00 428.00 C 297.61 422.89 317.99 405.67 308.04 381.65"/>
<path stroke-width="2.5" d="M 308.04 381.65 C 317.99 405.67 344.59 403.43 377.62 377.62 C 403.43 344.59 405.67 317.99 381.65 308.04"/>
<circle cx="256" cy="256" r="116"/>
<polygon points="256.00,144.00 159.01,312.00 352.99,312.00"/>
<polygon stroke-width="3.5" points="256.00,206.00 212.70,281.00 299.30,281.00"/>
<polygon stroke-width="3.5" points="299.30,231.00 212.70,231.00 256.00,306.00"/>
</g>
<circle cx="256" cy="256" r="10" fill="#1a1a1a"/>
</svg>
