<svg xmlns="http://www.w3.org/2000/svg" viewBox="0 0 512 512">
<rect width="512" height="512" rx="96" fill="#ff9933"/>
<g fill="none" stroke="#1a1a1a" stroke-width="5" stroke-linejoin="round" stroke-linecap="round">
<path transform="rotate(0 256 256)" d="M 56.00 56.00 L 216.00 56.00 M 296.00 56.00 L 456.00 56.00 M 216.00 56.00 L 216.00 28.00 M 296.00 56.00 L 296.00 28.00 M 216.00 28.00 L 296.00 28.00"/>
<path transform="rotate(90 256 256)" d="M 56.00 56.00 L 216.00 56.00 M 296.00 56.00 L 456.00 56.00 M 216.00 56.00 L 216.00 28.00 M 296.00 56.00 L 296.00 28.00 M 216.00 28.00 L 296.00 28.00"/>
<path transform="rotate(180 256 256)" d="M 56.00 56.00 L 216.00 56.00 M 296.00 56.00 L 456.00 56.00 M 216.00 56.00 L 216.00 28.00 M 296.00 56.00 L 296.00 28.00 M 216.00 28.00 L 296.00 28.00"/>
<path transform="rotate(270 256 256)" d="M 56.00 56.00 L 216.00 56.00 M 296.00 56.00 L 456.00 56.00 M 216.00 56.00 L 216.00 28.00 M 296.00 56.00 L 296.00 28.00 M 216.00 28.00 L 296.00 28.00"/>
<circle cx="256" cy="256" r="188"/>
<path stroke-width="3.5" d="M 372.00 256.00 C 422.00 256.00 415.16 208.85 429.69 184.06 C 401.88 176.79 373.38 138.62 338.02 173.98 Z"/>
<path stroke-width="3.5" d="M 338.02 173.98 C 373.38 138.62 335.21 110.12 327.94 82.31 C 303.15 96.84 256.00 90.00 256.00 140.00 Z"/>
<path stroke-width="3.5" d="M 256.00 140.00 C 256.00 90.00 208.85 96.84 184.06 82.31 C 176.79 110.12 138.62 138.62 173.98 173.98 Z"/>
<path stroke-width="3.5" d="M 173.98 173.98 C 138.62 138.62 110.12 176.79 82.31 184.06 C 96.84 208.85 90.00 256.00 140.00 256.00 Z"/>
<path stroke-width="3.5" d="M 140.00 256.00 C 90.00 256.00 96.84 303.15 82.31 327.94 C 110.12 335.21 138.62 373.38 173.98 338.02 Z"/>
<path stroke-width="3.5" d="M 173.98 338.02 C 138.62 373.38 176.79 401.88 184.06 429.69 C 208.85 415.16 256.00 422.00 256.00 372.00 Z"/>
<path stroke-width="3.5" d="M 256.00 372.00 C 256.00 422.00 303.15 415.16 327.94 429.69 C 335.21 401.88 373.38 373.38 338.02 338.02 Z"/>
<path stroke-width="3.5" d="M 338.02 338.02 C 373.38 373.38 401.88 335.21 429.69 327.94 C 415.16 303.15 422.00 256.00 372.00 256.00 Z"/>
<circle cx="256" cy="256" r="116"/>
<polygon points="256.00,144.00 159.01,312.00 352.99,312.00"/>
<polygon stroke-width="3.5" points="256.00,206.00 212.70,281.00 299.30,281.00"/>
<polygon stroke-width="3.5" points="299.30,231.00 212.70,231.00 256.00,306.00"/>
</g>
<circle cx="256" cy="256" r="10" fill="#1a1a1a"/>
</svg>
