<svg xmlns="http://www.w3.org/2000/svg" viewBox="0 0 512 512">
<defs><linearGradient id="g" x1="0" y1="0" x2="1" y2="1"><stop offset="0" stop-color="#667eea"/><stop offset="1" stop-color="#764ba2"/></linearGradient></defs>
<rect width="512" height="512" rx="96" fill="url(#g)"/>
<g fill="none" stroke="#ffffff" stroke-width="4" stroke-linejoin="round" stroke-linecap="round">
<rect x="60" y="60" width="392" height="392"/>
<rect x="228" y="32" width="56" height="56"/>
<rect x="228" y="424" width="56" height="56"/>
<rect x="32" y="228" width="56" height="56"/>
<rect x="424" y="228" width="56" height="56"/>
<circle cx="256" cy="256" r="186"/>
<path d="M 364.00 256.00 Q 396.04 202.24 434.00 256.00 Q 396.04 309.76 364.00 256.00 Z" stroke-width="3"/>
<path d="M 332.37 179.63 Q 317.01 118.97 381.87 130.13 Q 393.03 194.99 332.37 179.63 Z" stroke-width="3"/>
<path d="M 256.00 148.00 Q 202.24 115.96 256.00 78.00 Q 309.76 115.96 256.00 148.00 Z" stroke-width="3"/>
<path d="M 179.63 179.63 Q 118.97 194.99 130.13 130.13 Q 194.99 118.97 179.63 179.63 Z" stroke-width="3"/>
<path d="M 148.00 256.00 Q 115.96 309.76 78.00 256.00 Q 115.96 202.24 148.00 256.00 Z" stroke-width="3"/>
<path d="M 179.63 332.37 Q 194.99 393.03 130.13 381.87 Q 118.97 317.01 179.63 332.37 Z" stroke-width="3"/>
<path d="M 256.00 364.00 Q 309.76 396.04 256.00 434.00 Q 202.24 396.04 256.00 364.00 Z" stroke-width="3"/>
<path d="M 332.37 332.37 Q 393.03 317.01 381.87 381.87 Q 317.01 393.03 332.37 332.37 Z" stroke-width="3"/>
</g>
<g fill="none" stroke="#f6c453" stroke-width="4" stroke-linejoin="round">
<polygon points="256.00,156.00 169.40,306.00 342.60,306.00"/>
<polygon points="342.60,206.00 169.40,206.00 256.00,356.00"/>
<circle cx="256" cy="256" r="40"/>
</g>
<circle cx="256" cy="256" r="15" fill="#f6c453"/>
</svg>
